<?xml version="1.0" standalone="no"?>
<!DOCTYPE svg PUBLIC "-//W3C//DTD SVG 20010904//EN"
 "http://www.w3.org/TR/2001/REC-SVG-20010904/DTD/svg10.dtd">
<svg version="1.0" xmlns="http://www.w3.org/2000/svg"
 width="475.000000pt" height="475.000000pt" viewBox="0 0 475.000000 475.000000"
 preserveAspectRatio="xMidYMid meet">
<metadata>
Created by potrace 1.11, written by Peter Selinger 2001-2013
</metadata>
<g transform="translate(0.000000,475.000000) scale(0.100000,-0.100000)"
fill="#000000" stroke="none">
<path d="M2379 4558 c-15 -5 -31 -20 -37 -34 -7 -13 -19 -27 -27 -30 -8 -4
-15 -12 -15 -20 0 -8 -4 -14 -10 -14 -5 0 -10 -7 -10 -15 0 -9 -6 -18 -14 -21
-7 -3 -31 -31 -52 -62 -22 -31 -49 -66 -61 -79 -13 -12 -23 -25 -23 -28 0 -6
-53 -75 -85 -111 -5 -7 -19 -24 -30 -40 -11 -15 -28 -35 -37 -43 -10 -9 -18
-21 -18 -27 0 -7 -7 -14 -15 -18 -8 -3 -15 -12 -15 -21 0 -8 -4 -15 -10 -15
-5 0 -10 -6 -10 -13 0 -7 -9 -18 -20 -25 -11 -7 -20 -17 -20 -23 0 -11 -13
-27 -67 -84 -13 -13 -23 -29 -23 -35 0 -5 -4 -10 -10 -10 -5 0 -10 -6 -10 -14
0 -8 -9 -18 -21 -21 -11 -4 -18 -9 -15 -12 6 -6 -46 -77 -76 -104 -10 -9 -18
-20 -18 -24 0 -4 -12 -19 -27 -33 -16 -14 -26 -26 -23 -27 6 -1 -16 -28 -42
-53 -10 -9 -18 -22 -18 -30 0 -7 -4 -11 -9 -7 -5 3 -12 -3 -15 -12 -3 -10 -26
-39 -50 -65 -24 -27 -41 -48 -38 -48 4 0 -9 -14 -28 -30 -19 -16 -31 -30 -27
-30 5 0 -7 -13 -25 -30 -18 -16 -29 -30 -24 -30 4 0 -6 -12 -23 -26 -17 -14
-29 -30 -26 -34 3 -5 -4 -11 -15 -15 -11 -4 -18 -11 -15 -16 4 -5 2 -9 -4 -9
-6 0 -22 -17 -36 -37 -14 -21 -25 -34 -25 -29 0 5 -10 -4 -22 -20 -12 -16 -37
-43 -55 -61 -18 -17 -33 -35 -33 -39 0 -4 -17 -24 -38 -45 -20 -20 -46 -49
-57 -62 -10 -14 -23 -23 -27 -21 -4 3 -8 -2 -8 -10 0 -9 -4 -16 -10 -16 -5 0
-10 -4 -10 -10 0 -5 -15 -24 -32 -42 -18 -19 -53 -58 -78 -87 -25 -29 -60 -69
-77 -87 -18 -19 -33 -37 -33 -40 0 -3 -12 -16 -26 -29 -15 -14 -24 -25 -21
-25 3 0 -9 -15 -26 -34 -68 -73 -77 -84 -77 -97 0 -7 -3 -9 -6 -6 -4 4 -21
-14 -39 -38 -17 -25 -35 -42 -38 -38 -4 3 -7 1 -7 -5 0 -7 -8 -20 -17 -31 -10
-10 -34 -38 -53 -61 -19 -24 -40 -49 -47 -55 -7 -7 -10 -15 -7 -18 3 -3 -4 -8
-15 -12 -12 -3 -19 -11 -16 -16 4 -5 1 -9 -4 -9 -6 0 -11 -7 -11 -15 0 -8 -7
-15 -15 -15 -8 0 -15 -4 -15 -9 0 -11 -34 -53 -67 -84 -13 -11 -23 -26 -23
-33 0 -7 -5 -14 -11 -16 -6 -2 -12 -20 -13 -41 0 -20 -5 -37 -9 -37 -5 0 -6
-4 -2 -9 3 -5 0 -13 -5 -16 -8 -5 -5 -14 7 -28 10 -11 12 -17 6 -13 -15 8 -14
11 -16 -72 -1 -34 -5 -62 -8 -62 -3 0 -6 -7 -6 -15 0 -8 5 -15 11 -15 6 0 5
-5 -2 -12 -7 -7 -12 -35 -12 -62 0 -28 -4 -57 -9 -65 -5 -7 -5 -27 -1 -42 6
-20 5 -29 -3 -29 -8 0 -7 -3 2 -9 8 -5 9 -11 3 -15 -5 -3 -10 -17 -9 -31 0
-13 3 -22 8 -20 4 3 5 -5 2 -17 -10 -41 -10 -243 0 -256 6 -8 6 -16 -1 -25
-12 -14 -11 -76 2 -96 6 -9 5 -12 -1 -8 -14 9 -14 -44 1 -62 7 -9 7 -12 0 -8
-7 4 -10 -14 -10 -53 0 -33 4 -60 8 -60 5 0 4 -9 -2 -19 -7 -13 -7 -22 0 -26
6 -4 7 -13 1 -24 -6 -10 -6 -23 -1 -31 5 -8 5 -19 0 -25 -5 -6 -5 -17 0 -25 5
-8 5 -21 -1 -31 -6 -12 -5 -20 1 -24 8 -5 7 -11 -1 -21 -6 -8 -7 -14 -2 -14 5
0 8 -12 8 -27 -1 -16 1 -32 4 -38 3 -5 4 -23 2 -38 -3 -28 42 -102 57 -93 4 2
34 0 67 -5 33 -5 77 -11 97 -13 20 -2 41 -7 47 -10 5 -4 12 -2 16 4 4 6 11 7
17 4 11 -7 41 -12 118 -19 25 -2 68 -7 95 -10 28 -4 64 -7 82 -8 17 -2 35 -5
38 -9 4 -4 18 -3 31 2 14 6 24 6 24 0 0 -5 20 -8 45 -7 25 1 45 -2 45 -6 0 -4
17 -7 38 -7 20 0 56 -2 80 -4 24 -3 71 -8 105 -11 33 -3 101 -10 151 -15 86
-10 169 -17 281 -24 28 -2 50 -4 50 -5 0 -3 123 -12 195 -14 30 -1 58 -6 62
-12 5 -6 8 -5 8 3 0 7 5 10 11 7 5 -4 40 -9 77 -11 37 -3 94 -7 127 -10 152
-11 174 -11 168 0 -5 8 -2 8 8 0 16 -13 139 -24 139 -13 0 4 14 4 31 -1 80
-23 942 -19 1259 6 36 3 89 5 118 6 28 0 52 4 52 8 0 4 20 6 45 4 25 -2 45 0
45 4 0 4 28 7 63 7 34 -1 68 3 75 8 8 6 12 5 12 -4 0 -9 3 -10 8 -3 4 5 23 10
42 11 19 0 49 3 65 6 17 3 61 9 100 12 38 3 81 7 95 10 14 2 63 9 110 15 47 6
93 12 102 13 20 4 58 44 58 63 0 7 6 15 13 17 9 4 8 6 -2 6 -11 1 -11 4 -1 16
7 9 10 18 7 21 -3 4 0 13 8 20 8 8 12 21 9 29 -3 8 -2 20 2 27 5 7 10 22 12
33 5 28 10 50 12 50 2 0 12 58 14 83 0 12 4 22 8 22 3 0 5 8 4 18 -2 9 2 20 8
24 8 6 7 8 -1 8 -9 0 -10 7 -3 24 13 35 12 697 -2 713 -6 7 -7 13 -2 13 5 0 8
15 7 32 -1 18 -2 33 -3 33 -2 0 -5 23 -13 110 -2 22 -5 40 -7 40 -3 0 -7 35
-13 105 -3 30 -8 63 -12 72 -4 9 -4 22 0 28 3 5 1 10 -6 10 -6 0 -9 8 -6 20 3
11 1 20 -5 20 -5 0 -7 4 -4 9 3 4 -6 21 -19 37 -14 16 -25 35 -25 43 0 8 -3
12 -6 8 -7 -6 -34 16 -34 28 0 4 -6 12 -12 19 -33 33 -68 76 -68 82 0 4 -16
22 -35 40 -18 19 -32 34 -30 34 6 0 -21 33 -52 66 -13 13 -23 26 -23 29 0 5
-37 49 -67 80 -7 7 -9 15 -6 19 4 3 -1 6 -10 6 -9 0 -17 7 -17 15 0 8 -4 15
-10 15 -5 0 -10 7 -10 16 0 8 -4 12 -10 9 -5 -3 -10 -2 -10 2 0 11 -28 49 -57
78 -13 12 -23 25 -23 29 0 4 -11 18 -25 32 -14 14 -25 29 -25 34 0 6 -7 10
-15 10 -8 0 -15 6 -15 14 0 8 -13 28 -30 46 -16 18 -30 36 -30 41 0 5 -9 14
-20 21 -11 7 -20 19 -20 26 0 7 -4 11 -8 8 -4 -2 -14 9 -21 25 -7 16 -17 27
-22 23 -5 -3 -9 1 -9 9 0 7 -11 24 -25 37 -14 13 -25 29 -25 37 0 7 -7 13 -15
13 -8 0 -15 5 -15 11 0 6 -6 16 -12 24 -7 7 -29 32 -47 55 -19 23 -41 48 -48
56 -7 7 -13 15 -13 18 0 3 -10 16 -22 29 -13 13 -36 41 -53 62 -16 21 -39 48
-50 61 -11 13 -30 36 -42 51 -12 15 -31 39 -42 52 -12 13 -21 28 -21 33 0 4
-7 8 -16 8 -8 0 -13 4 -10 9 3 4 -15 30 -40 56 -25 26 -40 44 -32 40 7 -4 3 3
-9 16 -58 62 -94 106 -99 122 -3 9 -12 17 -19 17 -8 0 -17 11 -21 25 -4 14 -9
23 -12 21 -3 -3 -16 10 -29 29 -13 19 -28 35 -34 35 -6 0 -8 4 -5 9 3 5 -9 22
-27 38 -17 16 -33 35 -34 41 -2 6 -21 29 -43 52 -22 22 -40 48 -40 56 0 8 -4
12 -10 9 -5 -3 -10 -1 -10 6 0 7 -19 31 -42 53 -23 23 -41 43 -39 46 2 6 -40
58 -91 111 -20 22 -34 39 -31 39 6 0 -75 99 -101 123 -10 9 -16 17 -12 17 4 0
-7 14 -24 30 -17 17 -28 30 -25 30 4 0 0 7 -9 15 -8 9 -32 37 -53 63 -21 26
-46 54 -55 63 -10 9 -18 19 -18 23 0 13 -38 43 -61 48 -14 2 -36 1 -50 -4z"/>
</g>
</svg>
